<svg width="2119" height="447" viewBox="0 0 2119 447" fill="none" xmlns="http://www.w3.org/2000/svg">
<path d="M144.06 328.692C212.268 328.692 262.836 289.884 281.652 223.44L229.32 214.032C216.384 259.308 185.22 284.592 147 284.592C90.552 284.592 54.096 236.964 54.096 164.052C54.096 91.728 90.552 44.1 147 44.1C185.808 44.1 216.972 70.56 229.32 116.424L281.652 105.84C264.6 41.16 215.796 0 148.176 0C59.388 0 0 66.444 0 165.816C0 263.424 57.624 328.692 144.06 328.692Z" fill="white"/>
<path d="M498.276 328.692C591.768 328.692 653.508 262.836 653.508 164.052C653.508 65.856 591.768 0 498.276 0C405.372 0 343.632 65.856 343.632 164.052C343.632 262.836 405.372 328.692 498.276 328.692ZM397.728 164.052C397.728 91.728 437.124 44.1 498.276 44.1C560.016 44.1 599.412 91.728 599.412 164.052C599.412 236.964 560.016 284.592 498.276 284.592C437.124 284.592 397.728 236.964 397.728 164.052Z" fill="white"/>
<path d="M867.99 446.292C959.718 446.292 1017.93 392.784 1017.93 309.288V5.88L972.654 5.88V64.68C949.134 24.108 909.738 0 860.346 0C773.91 0 716.874 65.856 716.874 164.052C716.874 261.66 772.734 327.516 856.23 327.516C903.858 327.516 942.666 305.172 966.186 267.54V311.64C966.186 369.852 928.554 406.896 869.166 406.896C826.83 406.896 796.254 386.904 779.202 349.272L730.986 367.5C756.27 418.656 803.898 446.292 867.99 446.292ZM770.97 164.052C770.97 91.728 809.778 44.1 870.342 44.1C930.318 44.1 969.126 91.728 969.126 164.052C969.126 236.964 930.318 284.592 870.342 284.592C809.778 284.592 770.97 236.964 770.97 164.052Z" fill="white"/>
<path d="M1303.44 111.132V131.124L1197.6 148.764C1134.69 159.348 1095.88 189.336 1095.88 239.904C1095.88 293.412 1138.22 328.692 1200.54 328.692C1246.41 328.692 1285.22 306.936 1307.56 274.008C1309.32 289.296 1312.26 305.76 1315.79 322.812H1364.6C1357.54 286.944 1352.84 255.78 1352.84 226.38V109.956C1352.84 34.692 1305.21 0 1235.24 0C1169.38 0 1122.93 33.516 1101.17 91.14L1148.21 101.724C1162.91 61.74 1192.9 41.16 1233.47 41.16C1271.69 41.16 1303.44 61.152 1303.44 111.132ZM1147.62 238.728C1147.62 208.74 1169.97 191.688 1209.36 185.22L1303.44 168.756V201.096C1303.44 250.488 1261.11 289.884 1211.13 289.884C1172.91 289.884 1147.62 269.304 1147.62 238.728Z" fill="white"/>
<path d="M1497.69 440.412V272.832C1521.21 308.112 1558.26 328.692 1603.53 328.692C1689.38 328.692 1747.01 262.836 1747.01 164.052C1747.01 65.856 1691.15 0 1607.65 0C1557.08 0 1517.69 24.696 1494.17 65.856V5.88L1445.95 5.88V440.412H1497.69ZM1494.75 164.052C1494.75 91.728 1533.56 44.1 1593.54 44.1C1654.1 44.1 1692.91 91.728 1692.91 164.052C1692.91 236.964 1654.1 284.592 1593.54 284.592C1533.56 284.592 1494.75 236.964 1494.75 164.052Z" fill="white"/>
<path d="M1869.64 440.412V272.832C1893.16 308.112 1930.21 328.692 1975.48 328.692C2061.33 328.692 2118.96 262.836 2118.96 164.052C2118.96 65.856 2063.1 0 1979.6 0C1929.03 0 1889.64 24.696 1866.12 65.856V5.88L1817.9 5.88V440.412H1869.64ZM1866.7 164.052C1866.7 91.728 1905.51 44.1 1965.49 44.1C2026.05 44.1 2064.86 91.728 2064.86 164.052C2064.86 236.964 2026.05 284.592 1965.49 284.592C1905.51 284.592 1866.7 236.964 1866.7 164.052Z" fill="white"/>
</svg>
